<?xml version="1.0" encoding="UTF-8"?>
<svg id="Layer_2" xmlns="http://www.w3.org/2000/svg" version="1.1" viewBox="0 0 527.04 112.1">
  <!-- Generator: Adobe Illustrator 30.1.0, SVG Export Plug-In . SVG Version: 2.1.1 Build 136)  -->
  <g id="layer">
    <path d="M322.55,39.15v-1.6l-.2-21.4s-.5-2,2.7-1l.1,24h-2.6ZM324.05,72.75s-1.1.3-1.4-.9v-15.6h2.6v17.4l-1.2-.9ZM296.35,39.15l-9.4,14-.1-36.8,10.1,5.3s.9-.7,1.4,1.6v15.8h-2v.1ZM283.05,75.45s-.7.7-.9-.5l.2-56.8s.2-1.9,3-2l.2,60.9-2.5-1.6h0ZM368.05,78.15s-5.8-2.7-6.5-9.5V13.65s.7-.3-.9-1.4L340.35.35s-.5-1.1-2.5.6l-17.2,10.8-17.2-9.5s-.7-.7-1.6-.2c-1.4.8-21.7,11.7-21.7,11.7l-15.1-8.8s-.7-1.1-1.6-.4l-16.5,10.6s-2.3.9.9,2.7l.6.2,11.5,8.3v48.7l-5.9,3.4s-2,.9-.2,2.2l21,11,16-9s1.4-.9.2-2.2l-3.8-2.4-.1-21.7h11.4v16.9l-5.2,3.2s-1.6.9.5,2.3l24.1,12.8,16.2-10.1s1.6-.2.5-1.4l-7.7-5.3v-19.3l11.1-16.1h-11.2l-.1-23.3,10.4,5.4s1.3-.4,1.6,2.1v52.7s1.3,11,14.7,15.5l15.6-11.1c-.1-.4.6-1.3-1-2.5"/>
    <path d="M404.75,76.85s-9.1-4.6-13.9-12.8c-1.2-2.5-3.8-8.9-1.9-15.8,0,0,.4-7.7,9.3-11.7l12.2,8.2-.2,31.1c0,.1-1.6,2.8-5.5,1M446.25,77.75l-9.9-6.7v-27.1s-.2-1.3.7-1.4l3.8-3s.7-1.1-.6-2.5-24.4-12.9-24.4-12.9c0,0-.9-1.3-3,.2,0,0-25.3,10.3-35.4,23.4,0,0-7.8,5-6.5,24.9h0v.4c.4,2.4,3.5,16,22.4,18.5l13.9-11.1s.7-1.3,1.8-.2l23.4,11.3,14.2-11.1c-.1-.2.6-1.4-.4-2.7"/>
    <path d="M458.95,26.75s-13.8,8.4-14.9,10.1c-1.1,1.6-.2,2.3-.2,2.3,0,0,5.9,3.8,7.5,4.3s1.1,1.4,1.1,1.4l.4,27.7c.2.7,0,2.6,0,2.6,0,0-2.4,1.8-3.6,2.9-1.5,1.3-.3,2.5-.3,2.5l21.4,10.8s14.5-10.4,15.7-11c1.3-.5,0-1.6,0-1.6,0,0-6.2-3.6-7.3-4.1-1.1-.6-.7-1.6-.7-1.6,0,0-.8-27.3-.2-29.7.5-2.2,1.3-1.5,1.3-1.5,0,0,2-.5,3.6-1.6s.2-2,.2-2c0,0-19.9-10.4-21.4-11.7-1.5-1.1-2.6.2-2.6.2"/>
    <path d="M462.75,23.15c.7,1.8,2.7,1.4,2.7,1.4,8.4-3.4,11.9-11.5,11.9-11.5,2.2-7.9-2.9-10-2.9-10-4.4-2.7-7.7-.5-7.7-.5-5.1,2.8-6.5,8.1-6.5,8.1-1.3,6.9,2.5,12.5,2.5,12.5"/>
    <path d="M488.95,11.85s23.3-7.5,26.4-8.3c3.1-.7,2.9.7,2.9.7,0,0-.7,66.5-.2,68.8.6,2.3,1.6,1.8,1.6,1.8,0,0,5.4,3.8,6.6,4.3,1.3.5.6,1.8.6,1.8l-13.1,10.2s-21.5-9.5-23.2-10.6c-2.2-1.4-.7-2.3-.7-2.3l3.8-3.8s.7-54.4-.3-57.3c-1.1-2.9-4.5-3.9-4.5-3.9-.8-1.2.1-1.4.1-1.4"/>
  </g>
  <g>
    <path d="M27.53,91.48H0V.48h26.18c22.1,0,37.41,12.59,37.41,43.71v3.7c0,29.14-12.22,43.59-36.05,43.59,0,0-.01,0-.01,0ZM56.06,44.8c0-25.19-10.74-38.4-30.25-38.4H7.29v79.27h20.99c18.27,0,27.78-11.73,27.78-38.4,0,0,0-2.47,0-2.47Z"/>
    <path d="M119.53,91.48l-.49-12.47c-3.09,8.4-12.72,13.34-23.58,13.34-13.58,0-24.94-7.41-24.94-23.71v-1.23c0-13.71,9.88-23.83,26.18-23.83,9.75,0,18.15,4.08,22.22,11.85v-14.94c0-7.16-4.32-14.08-18.15-14.08-8.4,0-16.92,2.35-21.61,4.94v-6.05c4.57-2.47,12.59-4.57,22.6-4.57,17.53,0,24.08,10,24.08,19.26v51.49s-6.31,0-6.31,0ZM118.91,66.41c0-8.89-8.27-17.53-21.11-17.53-11.98,0-20.25,7.41-20.25,17.66v1.85c0,12.22,8.4,18.52,20.25,18.52,13.34,0,21.11-8.64,21.11-18.64v-1.86Z"/>
    <path d="M138.92,14.43V3.93h9.26v10.5h-9.26ZM140.03,91.48V22.21h7.28v69.27s-7.28,0-7.28,0Z"/>
    <path d="M162.51,91.48V.48h7.16v91h-7.16Z"/>
    <path d="M201.77,112.1h-7.16l9.38-21.24-29.26-68.28h7.53l25.81,60.25,26.05-60.25h7.16l-39.51,89.52h0Z"/>
  </g>
</svg>