<svg width="56" height="56" viewBox="0 0 56 56" fill="none" xmlns="http://www.w3.org/2000/svg">
<rect width="56" height="56" rx="4.66667" fill="#9AA3FF"/>
<g clip-path="url(#clip0_78_300)">
<mask id="mask0_78_300" style="mask-type:luminance" maskUnits="userSpaceOnUse" x="12" y="11" width="32" height="33">
<path d="M12.0555 12.0556C12.0555 11.6261 12.4038 11.2778 12.8333 11.2778H43.1667C43.5962 11.2778 43.9444 11.6261 43.9444 12.0556V43.1667H12.0555V12.0556Z" fill="white"/>
</mask>
<g mask="url(#mask0_78_300)">
<path d="M22.6839 11.2778H12.0555V21.9062H22.6839V11.2778Z" fill="#EEF0FF"/>
<path d="M22.8783 11.0835V22.1007H11.8611V11.0835H22.8783ZM12.25 21.7119H22.4894V11.4724H12.25V21.7119Z" fill="#343D99"/>
<path d="M33.3122 11.2778H22.6839V21.9062H33.3122V11.2778Z" fill="#EEF0FF"/>
<path d="M33.5067 11.0835V22.1007H22.4894V11.0835H33.5067ZM22.8783 21.7119H33.1178V11.4724H22.8783V21.7119Z" fill="#343D99"/>
<path d="M43.9406 11.2778H33.3123V21.9062H43.9406V11.2778Z" fill="#EEF0FF"/>
<path d="M44.1351 11.0835V22.1007H33.1178V11.0835H44.1351ZM33.5067 21.7119H43.7462V11.4724H33.5067V21.7119Z" fill="#343D99"/>
<path d="M22.6839 21.9062H12.0555V32.5346H22.6839V21.9062Z" fill="#EEF0FF"/>
<path d="M22.8783 21.7119V32.7292H11.8611V21.7119H22.8783ZM12.25 32.3403H22.4894V22.1008H12.25V32.3403Z" fill="#343D99"/>
<path d="M33.3122 21.9062H22.6839V32.5346H33.3122V21.9062Z" fill="#EEF0FF"/>
<path d="M33.5067 21.7119V32.7292H22.4894V21.7119H33.5067ZM22.8783 32.3403H33.1178V22.1008H22.8783V32.3403Z" fill="#343D99"/>
<path d="M43.9406 21.9062H33.3123V32.5346H43.9406V21.9062Z" fill="#EEF0FF"/>
<path d="M44.1351 21.7119V32.7292H33.1178V21.7119H44.1351ZM33.5067 32.3403H43.7462V22.1008H33.5067V32.3403Z" fill="#343D99"/>
<path d="M22.6839 32.5347H12.0555V43.163H22.6839V32.5347Z" fill="#EEF0FF"/>
<path d="M22.8783 32.3403V43.3576H11.8611V32.3403H22.8783ZM12.25 42.9687H22.4894V32.7292H12.25V42.9687Z" fill="#343D99"/>
<path d="M33.3122 32.5347H22.6839V43.163H33.3122V32.5347Z" fill="#EEF0FF"/>
<path d="M33.5067 32.3403V43.3576H22.4894V32.3403H33.5067ZM22.8783 42.9687H33.1178V32.7292H22.8783V42.9687Z" fill="#343D99"/>
<path d="M43.9406 32.5347H33.3123V43.163H43.9406V32.5347Z" fill="#EEF0FF"/>
<path d="M44.1351 32.3403V43.3576H33.1178V32.3403H44.1351ZM33.5067 42.9687H43.7462V32.7292H33.5067V42.9687Z" fill="#343D99"/>
</g>
<path d="M12.8333 12.0556V42.3889H43.1667V12.0556H12.8333ZM44.7222 43.9444H11.2778V12.0556C11.2778 11.1964 11.9742 10.5 12.8333 10.5H43.1667C44.0258 10.5 44.7222 11.1965 44.7222 12.0556V43.9444Z" fill="#343D99"/>
<path d="M44.7222 43.9443C44.7222 44.8034 44.0258 45.4998 43.1667 45.4998H12.8333C11.9742 45.4998 11.2778 44.8034 11.2778 43.9443C11.2778 43.9443 11.2778 43.3609 11.2778 43.1665H44.7222C44.7222 43.5554 44.7222 43.9443 44.7222 43.9443Z" fill="#343D99"/>
<path d="M17.5 20.6113C19.6477 20.6113 21.3889 18.8702 21.3889 16.7224C21.3889 14.5746 19.6477 12.8335 17.5 12.8335C15.3522 12.8335 13.6111 14.5746 13.6111 16.7224C13.6111 18.8702 15.3522 20.6113 17.5 20.6113Z" fill="#343D99"/>
<path d="M38.5 41.6113C40.6477 41.6113 42.3889 39.8702 42.3889 37.7224C42.3889 35.5746 40.6477 33.8335 38.5 33.8335C36.3522 33.8335 34.6111 35.5746 34.6111 37.7224C34.6111 39.8702 36.3522 41.6113 38.5 41.6113Z" fill="#343D99"/>
<path d="M38.5 20.6113C40.6477 20.6113 42.3889 18.8702 42.3889 16.7224C42.3889 14.5746 40.6477 12.8335 38.5 12.8335C36.3522 12.8335 34.6111 14.5746 34.6111 16.7224C34.6111 18.8702 36.3522 20.6113 38.5 20.6113Z" fill="#5665FF"/>
<path d="M28 20.6113C30.1477 20.6113 31.8889 18.8702 31.8889 16.7224C31.8889 14.5746 30.1477 12.8335 28 12.8335C25.8522 12.8335 24.1111 14.5746 24.1111 16.7224C24.1111 18.8702 25.8522 20.6113 28 20.6113Z" fill="#5665FF"/>
<path d="M29.9444 24.5001C29.9444 24.9296 30.2926 25.2778 30.7222 25.2778H35.7778C36.2073 25.2778 36.5555 24.9296 36.5555 24.5001V15.5556C36.5555 15.126 36.9038 14.7778 37.3333 14.7778H39.6667C40.0962 14.7778 40.4444 15.126 40.4444 15.5556V28.3889C40.4444 28.8185 40.0962 29.1667 39.6667 29.1667H26.8333C26.4038 29.1667 26.0555 28.8185 26.0555 28.3889V15.5556C26.0555 15.126 26.4038 14.7778 26.8333 14.7778H29.1667C29.5962 14.7778 29.9444 15.126 29.9444 15.5556V24.5001Z" fill="#5665FF"/>
<path d="M19.4444 35.0001C19.4444 35.4297 19.7926 35.7779 20.2222 35.7779H38.8889C39.3184 35.7779 39.6667 36.1261 39.6667 36.5557V38.889C39.6667 39.3186 39.3184 39.6668 38.8889 39.6668H16.3333C15.9038 39.6668 15.5555 39.3186 15.5555 38.889V16.3334C15.5555 15.9039 15.9038 15.5557 16.3333 15.5557H18.6667C19.0962 15.5557 19.4444 15.9039 19.4444 16.3334V35.0001Z" fill="#343D99"/>
</g>
<defs>
<clipPath id="clip0_78_300">
<rect width="35" height="35" fill="white" transform="translate(10.5 10.5)"/>
</clipPath>
</defs>
</svg>
