<svg width="299" height="361" viewBox="0 0 299 361" fill="none" xmlns="http://www.w3.org/2000/svg">
<path d="M116.899 15.2461C117.557 15.0325 118.247 14.9572 118.934 15.0234C122.834 15.3992 139.454 16.9375 150.008 16.9375C160.463 16.9375 175.361 15.4277 179.055 15.0352C179.754 14.9608 180.458 15.0324 181.129 15.248L242.412 34.9443C243.425 35.2699 244.307 35.9107 244.932 36.7725L282.731 88.9717C284.795 91.8213 283.348 95.8541 279.943 96.7422L242.597 106.485C241.276 106.83 240.354 108.023 240.353 109.388V340.298C240.353 343.059 238.115 345.298 235.353 345.298H63.3534C60.5921 345.298 58.3535 343.059 58.3534 340.298V109.355C58.3533 108.002 57.4467 106.816 56.1405 106.461L18.702 96.2871C15.3193 95.3679 13.9078 91.3434 15.9755 88.5127L53.7831 36.7529C54.4033 35.9039 55.2753 35.2712 56.2753 34.9463L116.899 15.2461Z" fill="#F8F8F9" stroke="#222834" stroke-width="2"/>
<path d="M60.8476 174.299C61.4126 170.311 62.021 165.31 62.5527 159.349C64.0866 142.15 64.9992 116.956 62.5038 85.0156C61.9246 77.6015 61.356 71.7279 60.8476 67.1504V174.299Z" fill="#C8102E" stroke="#C8102E" stroke-width="2"/>
<path d="M237.856 174.299C237.291 170.311 236.683 165.31 236.151 159.349C234.617 142.15 233.705 116.956 236.2 85.0156C236.779 77.6015 237.348 71.7279 237.856 67.1504V174.299Z" fill="#C8102E" stroke="#C8102E" stroke-width="2"/>
<path d="M92.0069 9.70814C100.925 11.2032 109.284 13.2531 118.003 14.332C147.718 17.4453 176.614 14.5323 207.989 8.9375C209.489 11.6193 210.128 14.7789 209.988 18.1852C166.995 29.7447 131.001 29.7447 90.1472 18.8325C90.0672 15.3954 90.7871 12.4824 92.0069 9.70814Z" fill="#222834"/>
<path d="M90.5471 13.2222C130.861 21.6993 167.655 21.6068 209.369 12.5903C209.469 12.8832 209.529 13.176 209.608 13.4534C167.655 23.071 130.861 23.1481 90.3072 14.0854C90.3671 13.7925 90.4471 13.4997 90.5471 13.2222Z" fill="#F5F2EA"/>
<path d="M90.0872 15.0101C130.861 24.6739 167.655 24.6277 209.888 14.3628C209.908 14.671 209.948 14.9947 209.988 15.303C167.595 26.2152 130.901 26.246 90.0072 15.9657C90.0272 15.6421 90.0672 15.3338 90.0872 15.0101Z" fill="#F5F2EA"/>
<path d="M90.3072 14.0854C130.861 23.1481 167.655 23.071 209.608 13.4534C209.708 13.7771 209.828 14.0545 209.888 14.3628C167.655 24.6277 130.861 24.6739 90.0872 15.0101C90.1472 14.7019 90.2072 14.409 90.3072 14.0854Z" fill="#C8102E"/>
<path d="M55.332 37.9115L12.3533 94.2969L59.4356 108.297L59.3534 40.5966L55.332 37.9115Z" fill="#F8F8F9"/>
<path d="M17.3533 86.2969L59.4356 97.8434L59.4356 108.297L12.3533 94.2969L17.3533 86.2969Z" fill="#222834"/>
<path d="M15.3533 89.2969L59.4408 101.437L59.4423 102.476L14.7653 90.4377L15.3533 89.2969Z" fill="#F5F2EA"/>
<path d="M14.2283 91.2969L59.4438 103.554L59.4453 104.539L13.6033 92.2969L14.2283 91.2969Z" fill="#F5F2EA"/>
<path d="M14.7653 90.4377L59.4423 102.476L59.4438 103.554L14.2283 91.2969L14.7653 90.4377Z" fill="#C8102E"/>
<path d="M242.778 37.9049L285.757 94.2903L239.353 108.297L238.757 40.59L242.778 37.9049Z" fill="#F8F8F9"/>
<path d="M280.757 86.2903L239.353 97.8438L239.353 108.297L285.757 94.2903L280.757 86.2903Z" fill="#222834"/>
<path d="M282.757 89.2903L239.348 101.438L239.347 102.477L283.345 90.4311L282.757 89.2903Z" fill="#F5F2EA"/>
<path d="M283.882 91.2903L239.345 103.555L239.344 104.539L284.507 92.2903L283.882 91.2903Z" fill="#F5F2EA"/>
<path d="M283.345 90.4311L239.347 102.477L239.345 103.555L283.882 91.2903L283.345 90.4311Z" fill="#C8102E"/>
<path d="M115.031 8.49707C116.416 8.08608 117.859 7.92879 119.298 8.03027L119.606 8.05566L121.633 8.24609C127.54 8.78882 141.117 9.9375 150.008 9.9375C160.039 9.93746 174.586 8.47052 178.315 8.07422L178.628 8.04492C180.088 7.92806 181.557 8.07761 182.97 8.49121L183.271 8.58301L244.554 28.2803C246.833 29.0128 248.838 30.4093 250.313 32.2852L250.601 32.667L288.401 84.8662C293.353 91.7052 289.881 101.384 281.711 103.516L247.353 112.479V340.298C247.353 346.925 241.981 352.298 235.353 352.298H63.3534C56.7261 352.298 51.3535 346.925 51.3534 340.298V112.413L16.8661 103.042C8.7475 100.836 5.35987 91.1774 10.3221 84.3838L48.1298 32.624L48.4159 32.248C49.8811 30.3994 51.8612 29.0203 54.1112 28.2891L114.735 8.58887L115.031 8.49707Z" stroke="white" stroke-width="16"/>
<path d="M116.899 15.2461C117.557 15.0325 118.247 14.9572 118.934 15.0234C122.834 15.3992 139.454 16.9375 150.008 16.9375C160.463 16.9375 175.361 15.4277 179.055 15.0352C179.754 14.9608 180.458 15.0324 181.129 15.248L242.412 34.9443C243.425 35.2699 244.307 35.9107 244.932 36.7725L282.731 88.9717C284.795 91.8213 283.348 95.8541 279.943 96.7422L242.597 106.485C241.276 106.83 240.354 108.023 240.353 109.388V340.298C240.353 343.059 238.115 345.298 235.353 345.298H63.3534C60.5921 345.298 58.3535 343.059 58.3534 340.298V109.355C58.3533 108.002 57.4467 106.816 56.1405 106.461L18.702 96.2871C15.3193 95.3679 13.9078 91.3434 15.9755 88.5127L53.7831 36.7529C54.4033 35.9039 55.2753 35.2712 56.2753 34.9463L116.899 15.2461Z" stroke="#222834" stroke-width="2"/>
<path d="M59.3533 33.9375L59.3533 344.298" stroke="#222834"/>
<path d="M239.353 33.9375V344.298" stroke="#222834"/>
</svg>
