<svg width="56" height="56" viewBox="0 0 56 56" fill="none" xmlns="http://www.w3.org/2000/svg">
<rect width="56" height="56" rx="4.66667" fill="#F8CD8B"/>
<g clip-path="url(#clip0_78_302)">
<path d="M22.2935 16.5868C22.2935 19.5284 19.9089 21.9129 16.9674 21.9129C14.0259 21.9129 11.6413 19.5284 11.6413 16.5868C11.6413 13.6453 14.0259 11.2607 16.9674 11.2607C19.9089 11.2607 22.2935 13.6453 22.2935 16.5868Z" fill="#926725"/>
<path d="M20.7067 16.5868C20.7067 14.5218 19.0325 12.8475 16.9674 12.8475C14.9023 12.8475 13.2281 14.5218 13.2281 16.5868C13.2281 18.6519 14.9023 20.3262 16.9674 20.3262V21.9129C14.0259 21.9129 11.6413 19.5284 11.6413 16.5868C11.6413 13.6453 14.0259 11.2607 16.9674 11.2607C19.9089 11.2607 22.2935 13.6453 22.2935 16.5868C22.2935 19.5284 19.9089 21.9129 16.9674 21.9129V20.3262C19.0325 20.3262 20.7067 18.6519 20.7067 16.5868Z" fill="#926725"/>
<path d="M22.2935 15.8261C22.2935 18.7676 19.9089 21.1522 16.9674 21.1522C14.0259 21.1522 11.6413 18.7676 11.6413 15.8261C11.6413 12.8846 14.0259 10.5 16.9674 10.5C19.9089 10.5 22.2935 12.8846 22.2935 15.8261Z" fill="#FEF7EC"/>
<path d="M20.7067 15.8261C20.7067 13.761 19.0325 12.0868 16.9674 12.0868C14.9023 12.0868 13.2281 13.761 13.2281 15.8261C13.2281 17.8912 14.9023 19.5654 16.9674 19.5654V21.1522C14.0259 21.1522 11.6413 18.7676 11.6413 15.8261C11.6413 12.8846 14.0259 10.5 16.9674 10.5C19.9089 10.5 22.2935 12.8846 22.2935 15.8261C22.2935 18.7676 19.9089 21.1522 16.9674 21.1522V19.5654C19.0325 19.5654 20.7067 17.8912 20.7067 15.8261Z" fill="#926725"/>
<path d="M33.3261 16.5868C33.3261 19.5284 30.9415 21.9129 28 21.9129C25.0585 21.9129 22.6739 19.5284 22.6739 16.5868C22.6739 13.6453 25.0585 11.2607 28 11.2607C30.9415 11.2607 33.3261 13.6453 33.3261 16.5868Z" fill="#926725"/>
<path d="M31.7393 16.5868C31.7393 14.5218 30.0651 12.8475 28 12.8475C25.9349 12.8475 24.2606 14.5218 24.2606 16.5868C24.2606 18.6519 25.9349 20.3262 28 20.3262V21.9129C25.0585 21.9129 22.6739 19.5284 22.6739 16.5868C22.6739 13.6453 25.0585 11.2607 28 11.2607C30.9415 11.2607 33.3261 13.6453 33.3261 16.5868C33.3261 19.5284 30.9415 21.9129 28 21.9129V20.3262C30.0651 20.3262 31.7393 18.6519 31.7393 16.5868Z" fill="#926725"/>
<path d="M33.3261 15.8261C33.3261 18.7676 30.9415 21.1522 28 21.1522C25.0585 21.1522 22.6739 18.7676 22.6739 15.8261C22.6739 12.8846 25.0585 10.5 28 10.5C30.9415 10.5 33.3261 12.8846 33.3261 15.8261Z" fill="#FEF7EC"/>
<path d="M31.7393 15.8261C31.7393 13.761 30.0651 12.0868 28 12.0868C25.9349 12.0868 24.2606 13.761 24.2606 15.8261C24.2606 17.8912 25.9349 19.5654 28 19.5654V21.1522C25.0585 21.1522 22.6739 18.7676 22.6739 15.8261C22.6739 12.8846 25.0585 10.5 28 10.5C30.9415 10.5 33.3261 12.8846 33.3261 15.8261C33.3261 18.7676 30.9415 21.1522 28 21.1522V19.5654C30.0651 19.5654 31.7393 17.8912 31.7393 15.8261Z" fill="#926725"/>
<path d="M44.3587 16.5868C44.3587 19.5284 41.9742 21.9129 39.0326 21.9129C36.0911 21.9129 33.7065 19.5284 33.7065 16.5868C33.7065 13.6453 36.0911 11.2607 39.0326 11.2607C41.9742 11.2607 44.3587 13.6453 44.3587 16.5868Z" fill="#926725"/>
<path d="M42.772 16.5868C42.772 14.5218 41.0977 12.8475 39.0326 12.8475C36.9676 12.8475 35.2933 14.5218 35.2933 16.5868C35.2933 18.6519 36.9676 20.3262 39.0326 20.3262V21.9129C36.0911 21.9129 33.7065 19.5284 33.7065 16.5868C33.7065 13.6453 36.0911 11.2607 39.0326 11.2607C41.9742 11.2607 44.3587 13.6453 44.3587 16.5868C44.3587 19.5284 41.9742 21.9129 39.0326 21.9129V20.3262C41.0977 20.3262 42.772 18.6519 42.772 16.5868Z" fill="#926725"/>
<path d="M44.3587 15.8261C44.3587 18.7676 41.9742 21.1522 39.0326 21.1522C36.0911 21.1522 33.7065 18.7676 33.7065 15.8261C33.7065 12.8846 36.0911 10.5 39.0326 10.5C41.9742 10.5 44.3587 12.8846 44.3587 15.8261Z" fill="#FEF7EC"/>
<path d="M42.772 15.8261C42.772 13.761 41.0977 12.0868 39.0326 12.0868C36.9676 12.0868 35.2933 13.761 35.2933 15.8261C35.2933 17.8912 36.9676 19.5654 39.0326 19.5654V21.1522C36.0911 21.1522 33.7065 18.7676 33.7065 15.8261C33.7065 12.8846 36.0911 10.5 39.0326 10.5C41.9742 10.5 44.3587 12.8846 44.3587 15.8261C44.3587 18.7676 41.9742 21.1522 39.0326 21.1522V19.5654C41.0977 19.5654 42.772 17.8912 42.772 15.8261Z" fill="#926725"/>
<path d="M22.2935 28.3803C22.2935 31.3218 19.9089 33.7064 16.9674 33.7064C14.0259 33.7064 11.6413 31.3218 11.6413 28.3803C11.6413 25.4388 14.0259 23.0542 16.9674 23.0542C19.9089 23.0542 22.2935 25.4388 22.2935 28.3803Z" fill="#926725"/>
<path d="M20.7067 28.3803C20.7067 26.3152 19.0325 24.641 16.9674 24.641C14.9023 24.641 13.2281 26.3152 13.2281 28.3803C13.2281 30.4454 14.9023 32.1196 16.9674 32.1196V33.7064C14.0259 33.7064 11.6413 31.3218 11.6413 28.3803C11.6413 25.4388 14.0259 23.0542 16.9674 23.0542C19.9089 23.0542 22.2935 25.4388 22.2935 28.3803C22.2935 31.3218 19.9089 33.7064 16.9674 33.7064V32.1196C19.0325 32.1196 20.7067 30.4454 20.7067 28.3803Z" fill="#926725"/>
<path d="M22.2935 27.6195C22.2935 30.5611 19.9089 32.9456 16.9674 32.9456C14.0259 32.9456 11.6413 30.5611 11.6413 27.6195C11.6413 24.678 14.0259 22.2935 16.9674 22.2935C19.9089 22.2935 22.2935 24.678 22.2935 27.6195Z" fill="#F3AC3D"/>
<path d="M20.7067 27.6195C20.7067 25.5545 19.0325 23.8802 16.9674 23.8802C14.9023 23.8802 13.2281 25.5545 13.2281 27.6195C13.2281 29.6846 14.9023 31.3589 16.9674 31.3589V32.9456C14.0259 32.9456 11.6413 30.5611 11.6413 27.6195C11.6413 24.678 14.0259 22.2935 16.9674 22.2935C19.9089 22.2935 22.2935 24.678 22.2935 27.6195C22.2935 30.5611 19.9089 32.9456 16.9674 32.9456V31.3589C19.0325 31.3589 20.7067 29.6846 20.7067 27.6195Z" fill="#926725"/>
<path d="M33.3261 28.3803C33.3261 31.3218 30.9415 33.7064 28 33.7064C25.0585 33.7064 22.6739 31.3218 22.6739 28.3803C22.6739 25.4388 25.0585 23.0542 28 23.0542C30.9415 23.0542 33.3261 25.4388 33.3261 28.3803Z" fill="#926725"/>
<path d="M31.7393 28.3803C31.7393 26.3152 30.0651 24.641 28 24.641C25.9349 24.641 24.2606 26.3152 24.2606 28.3803C24.2606 30.4454 25.9349 32.1196 28 32.1196V33.7064C25.0585 33.7064 22.6739 31.3218 22.6739 28.3803C22.6739 25.4388 25.0585 23.0542 28 23.0542C30.9415 23.0542 33.3261 25.4388 33.3261 28.3803C33.3261 31.3218 30.9415 33.7064 28 33.7064V32.1196C30.0651 32.1196 31.7393 30.4454 31.7393 28.3803Z" fill="#926725"/>
<path d="M33.3261 27.6195C33.3261 30.5611 30.9415 32.9456 28 32.9456C25.0585 32.9456 22.6739 30.5611 22.6739 27.6195C22.6739 24.678 25.0585 22.2935 28 22.2935C30.9415 22.2935 33.3261 24.678 33.3261 27.6195Z" fill="#FEF7EC"/>
<path d="M31.7393 27.6195C31.7393 25.5545 30.0651 23.8802 28 23.8802C25.9349 23.8802 24.2606 25.5545 24.2606 27.6195C24.2606 29.6846 25.9349 31.3589 28 31.3589V32.9456C25.0585 32.9456 22.6739 30.5611 22.6739 27.6195C22.6739 24.678 25.0585 22.2935 28 22.2935C30.9415 22.2935 33.3261 24.678 33.3261 27.6195C33.3261 30.5611 30.9415 32.9456 28 32.9456V31.3589C30.0651 31.3589 31.7393 29.6846 31.7393 27.6195Z" fill="#926725"/>
<path d="M44.3587 28.3803C44.3587 31.3218 41.9742 33.7064 39.0326 33.7064C36.0911 33.7064 33.7065 31.3218 33.7065 28.3803C33.7065 25.4388 36.0911 23.0542 39.0326 23.0542C41.9742 23.0542 44.3587 25.4388 44.3587 28.3803Z" fill="#F8CD8B"/>
<path d="M42.772 28.3803C42.772 26.3152 41.0977 24.641 39.0326 24.641C36.9676 24.641 35.2933 26.3152 35.2933 28.3803C35.2933 30.4454 36.9676 32.1196 39.0326 32.1196V33.7064C36.0911 33.7064 33.7065 31.3218 33.7065 28.3803C33.7065 25.4388 36.0911 23.0542 39.0326 23.0542C41.9742 23.0542 44.3587 25.4388 44.3587 28.3803C44.3587 31.3218 41.9742 33.7064 39.0326 33.7064V32.1196C41.0977 32.1196 42.772 30.4454 42.772 28.3803Z" fill="#926725"/>
<path d="M44.3587 27.6195C44.3587 30.5611 41.9742 32.9456 39.0326 32.9456C36.0911 32.9456 33.7065 30.5611 33.7065 27.6195C33.7065 24.678 36.0911 22.2935 39.0326 22.2935C41.9742 22.2935 44.3587 24.678 44.3587 27.6195Z" fill="#F8CD8B"/>
<path d="M42.772 27.6195C42.772 25.5545 41.0977 23.8802 39.0326 23.8802C36.9676 23.8802 35.2933 25.5545 35.2933 27.6195C35.2933 29.6846 36.9676 31.3589 39.0326 31.3589V32.9456C36.0911 32.9456 33.7065 30.5611 33.7065 27.6195C33.7065 24.678 36.0911 22.2935 39.0326 22.2935C41.9742 22.2935 44.3587 24.678 44.3587 27.6195C44.3587 30.5611 41.9742 32.9456 39.0326 32.9456V31.3589C41.0977 31.3589 42.772 29.6846 42.772 27.6195Z" fill="#926725"/>
<path d="M22.2935 40.1737C22.2935 43.1153 19.9089 45.4998 16.9674 45.4998C14.0259 45.4998 11.6413 43.1153 11.6413 40.1737C11.6413 37.2322 14.0259 34.8477 16.9674 34.8477C19.9089 34.8477 22.2935 37.2322 22.2935 40.1737Z" fill="#926725"/>
<path d="M20.7067 40.1737C20.7067 38.1087 19.0325 36.4344 16.9674 36.4344C14.9023 36.4344 13.2281 38.1087 13.2281 40.1737C13.2281 42.2388 14.9023 43.9131 16.9674 43.9131V45.4998C14.0259 45.4998 11.6413 43.1153 11.6413 40.1737C11.6413 37.2322 14.0259 34.8477 16.9674 34.8477C19.9089 34.8477 22.2935 37.2322 22.2935 40.1737C22.2935 43.1153 19.9089 45.4998 16.9674 45.4998V43.9131C19.0325 43.9131 20.7067 42.2388 20.7067 40.1737Z" fill="#926725"/>
<path d="M22.2935 39.413C22.2935 42.3545 19.9089 44.7391 16.9674 44.7391C14.0259 44.7391 11.6413 42.3545 11.6413 39.413C11.6413 36.4715 14.0259 34.0869 16.9674 34.0869C19.9089 34.0869 22.2935 36.4715 22.2935 39.413Z" fill="#F3AC3D"/>
<path d="M20.7067 39.413C20.7067 37.3479 19.0325 35.6737 16.9674 35.6737C14.9023 35.6737 13.2281 37.3479 13.2281 39.413C13.2281 41.4781 14.9023 43.1523 16.9674 43.1523V44.7391C14.0259 44.7391 11.6413 42.3545 11.6413 39.413C11.6413 36.4715 14.0259 34.0869 16.9674 34.0869C19.9089 34.0869 22.2935 36.4715 22.2935 39.413C22.2935 42.3545 19.9089 44.7391 16.9674 44.7391V43.1523C19.0325 43.1523 20.7067 41.4781 20.7067 39.413Z" fill="#926725"/>
<path d="M33.3261 40.1737C33.3261 43.1153 30.9415 45.4998 28 45.4998C25.0585 45.4998 22.6739 43.1153 22.6739 40.1737C22.6739 37.2322 25.0585 34.8477 28 34.8477C30.9415 34.8477 33.3261 37.2322 33.3261 40.1737Z" fill="#926725"/>
<path d="M31.7393 40.1737C31.7393 38.1087 30.0651 36.4344 28 36.4344C25.9349 36.4344 24.2606 38.1087 24.2606 40.1737C24.2606 42.2388 25.9349 43.9131 28 43.9131V45.4998C25.0585 45.4998 22.6739 43.1153 22.6739 40.1737C22.6739 37.2322 25.0585 34.8477 28 34.8477C30.9415 34.8477 33.3261 37.2322 33.3261 40.1737C33.3261 43.1153 30.9415 45.4998 28 45.4998V43.9131C30.0651 43.9131 31.7393 42.2388 31.7393 40.1737Z" fill="#926725"/>
<path d="M33.3261 39.413C33.3261 42.3545 30.9415 44.7391 28 44.7391C25.0585 44.7391 22.6739 42.3545 22.6739 39.413C22.6739 36.4715 25.0585 34.0869 28 34.0869C30.9415 34.0869 33.3261 36.4715 33.3261 39.413Z" fill="#F3AC3D"/>
<path d="M31.7393 39.413C31.7393 37.3479 30.0651 35.6737 28 35.6737C25.9349 35.6737 24.2606 37.3479 24.2606 39.413C24.2606 41.4781 25.9349 43.1523 28 43.1523V44.7391C25.0585 44.7391 22.6739 42.3545 22.6739 39.413C22.6739 36.4715 25.0585 34.0869 28 34.0869C30.9415 34.0869 33.3261 36.4715 33.3261 39.413C33.3261 42.3545 30.9415 44.7391 28 44.7391V43.1523C30.0651 43.1523 31.7393 41.4781 31.7393 39.413Z" fill="#926725"/>
<path d="M44.3587 40.1737C44.3587 43.1153 41.9742 45.4998 39.0326 45.4998C36.0911 45.4998 33.7065 43.1153 33.7065 40.1737C33.7065 37.2322 36.0911 34.8477 39.0326 34.8477C41.9742 34.8477 44.3587 37.2322 44.3587 40.1737Z" fill="#926725"/>
<path d="M42.772 40.1737C42.772 38.1087 41.0977 36.4344 39.0326 36.4344C36.9676 36.4344 35.2933 38.1087 35.2933 40.1737C35.2933 42.2388 36.9676 43.9131 39.0326 43.9131V45.4998C36.0911 45.4998 33.7065 43.1153 33.7065 40.1737C33.7065 37.2322 36.0911 34.8477 39.0326 34.8477C41.9742 34.8477 44.3587 37.2322 44.3587 40.1737C44.3587 43.1153 41.9742 45.4998 39.0326 45.4998V43.9131C41.0977 43.9131 42.772 42.2388 42.772 40.1737Z" fill="#926725"/>
<path d="M44.3587 39.413C44.3587 42.3545 41.9742 44.7391 39.0326 44.7391C36.0911 44.7391 33.7065 42.3545 33.7065 39.413C33.7065 36.4715 36.0911 34.0869 39.0326 34.0869C41.9742 34.0869 44.3587 36.4715 44.3587 39.413Z" fill="#F3AC3D"/>
<path d="M42.772 39.413C42.772 37.3479 41.0977 35.6737 39.0326 35.6737C36.9676 35.6737 35.2933 37.3479 35.2933 39.413C35.2933 41.4781 36.9676 43.1523 39.0326 43.1523V44.7391C36.0911 44.7391 33.7065 42.3545 33.7065 39.413C33.7065 36.4715 36.0911 34.0869 39.0326 34.0869C41.9742 34.0869 44.3587 36.4715 44.3587 39.413C44.3587 42.3545 41.9742 44.7391 39.0326 44.7391V43.1523C41.0977 43.1523 42.772 41.4781 42.772 39.413Z" fill="#926725"/>
</g>
<defs>
<clipPath id="clip0_78_302">
<rect width="35" height="35" fill="white" transform="translate(10.5 10.5)"/>
</clipPath>
</defs>
</svg>
