<svg width="90" height="90" viewBox="0 0 90 90" fill="none" xmlns="http://www.w3.org/2000/svg">
<g clip-path="url(#clip0_6635_14491)">
<path d="M30.1469 30.6258L41.4502 7.86247C41.7792 7.20369 42.2853 6.6496 42.9116 6.26233C43.5379 5.87506 44.2597 5.66992 44.9961 5.66992C45.7324 5.66992 46.4543 5.87506 47.0806 6.26233C47.7069 6.6496 48.2129 7.20369 48.542 7.86247L59.8453 30.6258L85.1146 34.2978C85.8435 34.3989 86.5292 34.7028 87.0936 35.175C87.658 35.6471 88.0783 36.2684 88.3065 36.968C88.5347 37.6676 88.5616 38.4172 88.3842 39.1313C88.2068 39.8455 87.8321 40.4953 87.3031 41.0067L69.0211 58.7144L73.337 83.7314C73.8896 86.9422 70.496 89.3874 67.594 87.8733L44.9961 76.0566L22.3938 87.8733C19.4962 89.3917 16.1026 86.9422 16.6551 83.727L20.9711 58.71L2.6891 41.0024C2.1626 40.4906 1.79022 39.8414 1.61431 39.1285C1.43839 38.4157 1.46598 37.6678 1.69395 36.9698C1.92191 36.2719 2.34111 35.6519 2.9039 35.1803C3.46668 34.7087 4.15047 34.4045 4.87755 34.3022L30.1469 30.6258Z" fill="#861129"/>
<path d="M44.9961 4.16992C46.011 4.16992 47.0059 4.45262 47.8692 4.98633C48.6245 5.4534 49.2531 6.09677 49.7022 6.8584L49.8838 7.19238L49.8858 7.19531L60.8379 29.2539L85.3194 32.8115H85.3204C86.3276 32.9512 87.2756 33.3718 88.0557 34.0244C88.8359 34.677 89.417 35.5359 89.7325 36.5029C90.0479 37.4699 90.0851 38.5062 89.8399 39.4932C89.5947 40.4799 89.0762 41.3765 88.3458 42.083L88.3467 42.084L70.6338 59.2402L74.8155 83.4766L74.8477 83.6855C75.436 88.039 70.8187 91.2473 66.9004 89.2031L66.8995 89.2021L44.9952 77.749L23.0889 89.2012L23.0899 89.2021C19.1063 91.2894 14.4111 87.9286 15.1768 83.4727V83.4717L19.3584 59.2354L1.64556 42.0801L1.64361 42.0781C0.916024 41.3709 0.401455 40.4735 0.158256 39.4883C-0.0849186 38.503 -0.0464826 37.4686 0.268607 36.5039C0.583726 35.5393 1.16268 34.682 1.94048 34.0303C2.7165 33.38 3.65902 32.9598 4.66119 32.8174L29.1534 29.2539L40.1065 7.19531L40.1085 7.19238C40.562 6.2842 41.2598 5.52013 42.1231 4.98633C42.9864 4.45263 43.9812 4.16992 44.9961 4.16992ZM44.9961 7.16992C44.5384 7.16992 44.0895 7.29738 43.7002 7.53809C43.3122 7.77808 42.9975 8.12068 42.793 8.52832L42.794 8.5293L31.4903 31.293C31.2714 31.7337 30.8503 32.0394 30.3633 32.1104L5.0938 35.7861L5.08697 35.7871C4.63777 35.8503 4.21486 36.0388 3.86724 36.3301C3.5196 36.6214 3.26098 37.0045 3.12017 37.4355C2.97932 37.8668 2.9617 38.3292 3.07036 38.7695C3.17883 39.2088 3.40838 39.609 3.73247 39.9248L22.0147 57.6328C22.3708 57.9778 22.5335 58.4763 22.4493 58.9648L18.1329 83.9805C17.7936 85.9547 19.8858 87.4939 21.6973 86.5449L21.6993 86.5439L44.3008 74.7275L44.4678 74.6523C44.8649 74.5029 45.3105 74.5283 45.6915 74.7275L68.2872 86.543C70.1104 87.4942 72.1959 85.9489 71.8585 83.9863L67.543 58.9697C67.4587 58.481 67.6214 57.9817 67.9776 57.6367L86.2598 39.9297L86.2608 39.9287C86.5877 39.6127 86.8192 39.2106 86.9288 38.7695C87.0383 38.3286 87.0217 37.8656 86.8809 37.4336C86.7399 37.0014 86.4796 36.6168 86.1309 36.3252C85.7823 36.0336 85.3585 35.8457 84.9083 35.7832L84.8985 35.7822L59.6299 32.1104C59.1427 32.0395 58.721 31.7339 58.502 31.293L47.2002 8.5332L47.1182 8.38281C46.9156 8.03913 46.6326 7.74873 46.292 7.53809C45.9028 7.29739 45.4538 7.16992 44.9961 7.16992Z" fill="#861129"/>
<path d="M30.1469 26.6258L41.4502 3.86247C41.7792 3.20369 42.2853 2.6496 42.9116 2.26233C43.5379 1.87506 44.2597 1.66992 44.9961 1.66992C45.7324 1.66992 46.4543 1.87506 47.0806 2.26233C47.7069 2.6496 48.2129 3.20369 48.542 3.86247L59.8453 26.6258L85.1146 30.2978C85.8435 30.3989 86.5292 30.7028 87.0936 31.175C87.658 31.6471 88.0783 32.2684 88.3065 32.968C88.5347 33.6676 88.5616 34.4172 88.3842 35.1313C88.2068 35.8455 87.8321 36.4953 87.3031 37.0067L69.0211 54.7144L73.337 79.7314C73.8896 82.9422 70.496 85.3874 67.594 83.8733L44.9961 72.0566L22.3938 83.8733C19.4962 85.3917 16.1026 82.9422 16.6551 79.727L20.9711 54.71L2.6891 37.0024C2.1626 36.4906 1.79022 35.8414 1.61431 35.1285C1.43839 34.4157 1.46598 33.6678 1.69395 32.9698C1.92191 32.2719 2.34111 31.6519 2.9039 31.1803C3.46668 30.7087 4.15047 30.4045 4.87755 30.3022L30.1469 26.6258Z" fill="#EC778F"/>
<path d="M44.9961 0.169922C46.011 0.169922 47.0059 0.452616 47.8692 0.986328C48.6245 1.4534 49.2531 2.09677 49.7022 2.8584L49.8838 3.19238L49.8858 3.19531L60.8379 25.2539L85.3194 28.8115H85.3204C86.3277 28.9512 87.2756 29.3718 88.0557 30.0244C88.8359 30.677 89.417 31.5359 89.7325 32.5029C90.0479 33.4699 90.0851 34.5062 89.8399 35.4932C89.5947 36.4799 89.0762 37.3765 88.3458 38.083L88.3467 38.084L70.6338 55.2402L74.8155 79.4766L74.8477 79.6855C75.436 84.039 70.8187 87.2473 66.9004 85.2031L66.8995 85.2021L44.9952 73.749L23.0889 85.2012L23.0899 85.2021C19.1063 87.2894 14.4111 83.9286 15.1768 79.4727V79.4717L19.3584 55.2354L1.64556 38.0801L1.64361 38.0781C0.916024 37.3709 0.401455 36.4735 0.158256 35.4883C-0.0849186 34.503 -0.0464826 33.4686 0.268607 32.5039C0.583726 31.5393 1.16268 30.682 1.94048 30.0303C2.7165 29.38 3.65902 28.9598 4.66119 28.8174L29.1534 25.2539L40.1065 3.19531L40.1085 3.19238C40.562 2.2842 41.2598 1.52013 42.1231 0.986328C42.9864 0.452625 43.9812 0.169923 44.9961 0.169922ZM44.9961 3.16992C44.5384 3.16992 44.0895 3.29738 43.7002 3.53809C43.3122 3.77808 42.9975 4.12068 42.793 4.52832L42.794 4.5293L31.4903 27.293C31.2714 27.7337 30.8503 28.0394 30.3633 28.1104L5.0938 31.7861L5.08697 31.7871C4.63777 31.8503 4.21486 32.0388 3.86724 32.3301C3.5196 32.6214 3.26098 33.0045 3.12017 33.4355C2.97932 33.8668 2.9617 34.3292 3.07036 34.7695C3.17883 35.2088 3.40838 35.609 3.73247 35.9248L22.0147 53.6328C22.3708 53.9778 22.5335 54.4763 22.4493 54.9648L18.1329 79.9805C17.7936 81.9547 19.8858 83.4939 21.6973 82.5449L21.6993 82.5439L44.3008 70.7275L44.4678 70.6523C44.8649 70.5029 45.3105 70.5283 45.6915 70.7275L68.2872 82.543C70.1104 83.4942 72.1959 81.9489 71.8585 79.9863L67.543 54.9697C67.4587 54.481 67.6214 53.9817 67.9776 53.6367L86.2598 35.9297L86.2608 35.9287C86.5877 35.6127 86.8192 35.2106 86.9288 34.7695C87.0383 34.3286 87.0217 33.8656 86.8809 33.4336C86.7399 33.0014 86.4796 32.6168 86.1309 32.3252C85.7823 32.0336 85.3585 31.8457 84.9083 31.7832L84.8985 31.7822L59.6299 28.1104C59.1427 28.0395 58.721 27.7339 58.502 27.293L47.2002 4.5332L47.1182 4.38281C46.9156 4.03913 46.6326 3.74873 46.292 3.53809C45.9028 3.29739 45.4538 3.16992 44.9961 3.16992Z" fill="#861129"/>
<path d="M44.9804 59.6701C44.0192 59.6701 43.1947 59.3345 42.5069 58.6633C41.8275 57.9838 41.4918 57.1593 41.5002 56.1898C41.4918 55.2452 41.8275 54.4372 42.5069 53.766C43.1947 53.0948 44.0192 52.7593 44.9804 52.7593C45.8919 52.7593 46.6957 53.0948 47.3918 53.766C48.0961 54.4372 48.4524 55.2452 48.4607 56.1898C48.4524 56.8361 48.2826 57.4245 47.9511 57.9548C47.6279 58.4769 47.2054 58.8953 46.6833 59.2102C46.1612 59.5168 45.5936 59.6701 44.9804 59.6701Z" fill="#FCE9ED"/>
<path d="M41.5655 49.5188C41.236 49.5188 40.9689 49.2517 40.9689 48.9222C40.9689 47.555 41.0766 46.4653 41.2921 45.6532C41.5075 44.8412 41.8266 44.1907 42.2492 43.7018C42.6718 43.2046 43.1897 42.7571 43.8029 42.3594C44.3332 42.0114 44.8055 41.6757 45.2198 41.3526C45.6425 41.0294 45.9739 40.6855 46.2142 40.3209C46.4628 39.9563 46.5871 39.542 46.5871 39.078C46.5871 38.6636 46.4877 38.2991 46.2888 37.9842C46.0899 37.6693 45.8206 37.4248 45.4809 37.2508C45.1411 37.0768 44.7641 36.9898 44.3498 36.9898C43.9023 36.9898 43.488 37.0934 43.1068 37.3005C42.7339 37.5077 42.4315 37.7936 42.1995 38.1582C42.0799 38.3531 41.9922 38.5646 41.9366 38.7926C41.8529 39.1355 41.5777 39.426 41.2248 39.426H36.1448C35.7896 39.426 35.5003 39.136 35.5232 38.7815C35.6222 37.2513 36.0287 35.987 36.7429 34.9886C37.5549 33.8451 38.6322 33.0082 39.9746 32.4779C41.3169 31.9393 42.7919 31.6699 44.3995 31.6699C46.1728 31.6699 47.7555 31.931 49.1476 32.453C50.5397 32.9668 51.6376 33.7457 52.4414 34.7898C53.2452 35.8256 53.6471 37.1224 53.6471 38.6803C53.6471 39.6829 53.4731 40.5654 53.125 41.3277C52.7853 42.0818 52.3089 42.7488 51.6957 43.3289C51.0908 43.9007 50.3823 44.4227 49.5702 44.8951C48.9736 45.2431 48.4723 45.6035 48.0662 45.9764C47.6602 46.341 47.3536 46.7595 47.1464 47.2318C46.9393 47.6958 46.8357 48.2593 46.8357 48.9222C46.8357 49.2517 46.5686 49.5188 46.2391 49.5188H41.5655Z" fill="#FCE9ED"/>
</g>
<defs>
<clipPath id="clip0_6635_14491">
<rect width="90" height="90" fill="white"/>
</clipPath>
</defs>
</svg>
