<svg width="90" height="91" viewBox="0 0 90 91" fill="none" xmlns="http://www.w3.org/2000/svg">
<path d="M4.5 47.1591C4.5 69.7532 22.815 88.0682 45.4091 88.0682C48.06 88.0682 50.5227 86.8409 52.3964 84.9673L83.2173 54.1464C85.0909 52.2727 86.3182 49.81 86.3182 47.1591C86.3182 24.565 68.0032 6.25 45.4091 6.25C22.815 6.25 4.5 24.565 4.5 47.1591Z" fill="#E7F7E7" stroke="#076707" stroke-width="4.5"/>
<path d="M39.8689 25.6569C42.6744 24.9051 45.2689 24.5989 47.6159 24.8175L47.6152 24.8187C49.9721 25.0259 52.0638 25.7151 53.7706 26.9971L53.7696 26.9973C55.5222 28.2506 56.6815 29.9939 57.2513 32.1204C57.6601 33.6461 57.7555 35.1649 57.4929 36.6517L57.4914 36.6653L57.4888 36.6781C57.2153 38.1161 56.5888 39.5564 55.6975 40.9878C54.828 42.3842 53.6191 43.9652 52.104 45.7217C51.4463 46.5275 50.9681 47.1842 50.6456 47.7008L50.6248 47.7327L50.6038 47.7636C50.2678 48.2602 50.1165 48.5897 50.0591 48.7719C49.9755 49.0375 49.9722 49.1825 49.9754 49.2331L49.976 49.2542L49.9778 49.2759C49.985 49.4425 50.0122 49.6305 50.0688 49.842L51.1782 53.9821L49.5151 54.4277C50.11 54.5385 50.6861 54.7292 51.236 55.013L51.237 55.0127C51.2442 55.0163 51.251 55.0206 51.2582 55.0242C51.2639 55.0271 51.27 55.0297 51.2757 55.0327L51.2747 55.0329C52.9775 55.8963 54.0283 57.4046 54.5235 59.2529C55.0267 61.1306 54.7647 62.9632 53.6996 64.5883L53.6975 64.5919C52.6408 66.1965 50.9853 67.1789 49.0358 67.7013C47.0647 68.2294 45.1193 68.2187 43.3931 67.353C41.649 66.4783 40.5512 64.965 40.0453 63.0767C39.5487 61.2232 39.7786 59.4061 40.8342 57.8032C41.179 57.2796 41.5901 56.8236 42.0537 56.427L40.4247 56.8635L38.39 49.27C38.0797 48.1117 37.8881 47.0286 37.8607 46.0492L37.8599 46.0161L37.86 45.9827C37.865 44.8801 38.1005 43.8083 38.5429 42.7808L38.5552 42.7512L38.5693 42.7212C38.6323 42.5867 38.6996 42.4512 38.7719 42.315C37.8916 43.3586 36.6045 43.9685 35.2613 44.3284C33.5389 44.7898 31.8081 44.7617 30.2541 43.9564L30.2329 43.9449L30.2125 43.9332C28.65 43.0767 27.6788 41.661 27.2192 39.9461C26.6944 37.9871 26.9326 36.0183 27.8078 34.1247L27.8096 34.1201C28.7181 32.1682 30.2454 30.4921 32.2404 29.0547L32.2495 29.0472C34.3226 27.5712 36.8837 26.4568 39.8689 25.6569ZM40.2122 34.7711C39.4897 34.9648 38.9436 35.1807 38.5406 35.396C38.5797 35.4429 38.6194 35.4887 38.6569 35.5357L38.656 35.5359C39.2154 36.2131 39.6099 36.9869 39.8374 37.8359C40.1356 38.9487 40.0165 40.0311 39.5764 41.0197C39.9211 40.5279 40.313 40.0261 40.7459 39.5174C41.8015 38.2289 42.4677 37.2778 42.8185 36.6307L42.8196 36.6273C43.0438 36.2148 43.0806 35.8584 42.971 35.4494C42.8625 35.0445 42.6955 34.8753 42.3514 34.7479L42.3323 34.7409L42.313 34.733C41.889 34.5662 41.2329 34.4977 40.2122 34.7711Z" fill="#6DCD6D" stroke="#076707" stroke-width="4.09091"/>
<path d="M47.25 88.0702C47.25 76.6443 47.25 70.9293 48.8577 66.3393C50.2786 62.2789 52.5961 58.5909 55.6379 55.549C58.6797 52.5072 62.3678 50.1898 66.4282 48.7689C71.0223 47.1611 76.7373 47.1611 88.1591 47.1611" fill="#0CAC0C"/>
<path d="M47.25 88.0702C47.25 76.6443 47.25 70.9293 48.8577 66.3393C50.2786 62.2789 52.5961 58.5909 55.6379 55.549C58.6797 52.5072 62.3678 50.1898 66.4282 48.7689C71.0223 47.1611 76.7373 47.1611 88.1591 47.1611" stroke="#076707" stroke-width="6.13636"/>
<path d="M4.5 43.1591C4.5 65.7532 22.815 84.0682 45.4091 84.0682C48.06 84.0682 50.5227 82.8409 52.3964 80.9673L83.2173 50.1464C85.0909 48.2727 86.3182 45.81 86.3182 43.1591C86.3182 20.565 68.0032 2.25 45.4091 2.25C22.815 2.25 4.5 20.565 4.5 43.1591Z" fill="#E7F7E7" stroke="#076707" stroke-width="4.5"/>
<path d="M41.8707 50.3582L40.3656 44.7411C40.0802 43.676 39.9268 42.7598 39.9052 41.9923C39.9088 41.1812 40.0808 40.3803 40.4213 39.5894C40.7961 38.7894 41.4319 37.8641 42.3287 36.8137C43.4109 35.4928 44.1737 34.423 44.6172 33.6046C45.0858 32.7426 45.1959 31.8478 44.9473 30.9201C44.6711 29.8895 44.0425 29.1926 43.0615 28.8295C42.1148 28.4571 40.9887 28.4459 39.6832 28.7957C38.6182 29.0811 37.7572 29.4407 37.1001 29.8745C36.4431 30.3083 35.9029 30.766 35.4797 31.2477C36.1448 31.8059 36.6712 32.3276 37.059 32.8129C37.4375 33.2638 37.7051 33.7813 37.8616 34.3653C38.0733 35.1555 37.931 35.9301 37.4348 36.689C36.9729 37.4388 36.072 37.9931 34.7321 38.3522C33.3579 38.7204 32.179 38.6496 31.1955 38.1399C30.2028 37.5958 29.5361 36.6882 29.1955 35.417C28.8089 33.9741 28.9652 32.4961 29.6645 30.9831C30.3889 29.4266 31.6462 28.0034 33.4363 26.7137C35.2608 25.4147 37.5816 24.3878 40.3987 23.633C43.0441 22.9241 45.3865 22.6647 47.4258 22.8547C49.4995 23.0355 51.2048 23.628 52.5417 24.6322C53.9038 25.5929 54.815 26.9321 55.2752 28.6499C55.6158 29.9211 55.6837 31.1364 55.4789 32.296C55.2649 33.4212 54.7589 34.6246 53.9608 35.9063C53.1627 37.188 52.019 38.6912 50.5295 40.4159C49.8363 41.2644 49.2965 41.9982 48.9101 42.6173C48.5144 43.202 48.2469 43.7155 48.1077 44.1579C47.9685 44.6002 47.9105 45.0024 47.9339 45.3644C47.948 45.692 48.0011 46.0276 48.0932 46.3711L48.6731 48.5355L41.8707 50.3582ZM48.5068 61.7257C46.8577 62.1676 45.4589 62.1005 44.3104 61.5245C43.1618 60.9485 42.3988 59.9562 42.0214 58.5476C41.6624 57.2078 41.8362 56.0013 42.5429 54.9282C43.2496 53.8551 44.4274 53.0976 46.0765 52.6558C47.7943 52.1955 49.2103 52.2579 50.3245 52.8431C51.4294 53.394 52.1706 54.3737 52.5481 55.7823C52.9071 57.1221 52.7207 58.3504 51.9889 59.4671C51.2822 60.5402 50.1215 61.293 48.5068 61.7257Z" fill="#6DCD6D"/>
<path d="M38.07 59.606C37.5376 57.6187 37.6562 55.5903 38.5382 53.7279L36.4138 45.7996C36.0959 44.6131 35.875 43.4286 35.8242 42.2937C35.813 42.2967 35.8017 42.3007 35.7905 42.3037C33.7199 42.8585 31.4375 42.8728 29.313 41.7717L29.2709 41.7506L29.2293 41.7274C27.0969 40.5586 25.8224 38.6342 25.244 36.4754C24.5809 34.0003 24.8999 31.5409 25.9511 29.2665L25.9557 29.2571C27.0483 26.9095 28.8451 24.9796 31.0453 23.3944L31.064 23.3813C33.3858 21.7283 36.1864 20.5266 39.3397 19.6817C42.3051 18.8871 45.1507 18.5339 47.8052 18.7812L47.8045 18.7824C50.4453 19.016 52.9223 19.8018 54.9983 21.361L54.9964 21.3615C57.1398 22.9074 58.5468 25.0544 59.2265 27.5912C59.7036 29.3714 59.8276 31.1937 59.5072 33.0078L59.5031 33.0342L59.4981 33.0608C59.1651 34.8114 58.4182 36.4875 57.4338 38.0684C56.4942 39.5774 55.2221 41.235 53.682 43.0228C53.0584 43.7872 52.64 44.3682 52.3806 44.7839L52.3399 44.8473L52.2981 44.9101C52.175 45.092 52.0952 45.2274 52.0468 45.3191L53.2618 49.8535C54.9423 51.0594 55.9847 52.8013 56.4997 54.7234C57.147 57.139 56.8086 59.5755 55.4103 61.7092L55.4055 61.7176C53.9987 63.8535 51.8494 65.0655 49.5654 65.6775C47.2721 66.292 44.7806 66.337 42.4768 65.1818C40.1368 64.0084 38.7046 61.9743 38.07 59.606ZM42.0971 58.807C42.4962 60.0787 43.2339 60.985 44.3106 61.525C45.3873 62.0648 46.6841 62.1576 48.2006 61.803L48.5066 61.7261C50.0203 61.3205 51.1349 60.6328 51.8506 59.6644L51.9889 59.4676C52.6751 58.4206 52.8819 57.275 52.6091 56.0318L52.5483 55.7822C52.1708 54.3737 51.4292 53.3945 50.3242 52.8436C49.2101 52.2584 47.7939 52.1952 46.0761 52.6555C44.4272 53.0973 43.2497 53.8556 42.5431 54.9286L42.4164 55.1314C41.8166 56.1528 41.685 57.2914 42.0214 58.5472L42.0971 58.807ZM29.1954 35.4166C29.536 36.6878 30.2033 37.596 31.196 38.14C32.1793 38.6495 33.3579 38.7203 34.7318 38.3523C36.0716 37.9933 36.9724 37.4386 37.4343 36.6889C37.9306 35.9299 38.0729 35.1556 37.8612 34.3655C37.7047 33.7815 37.4376 33.264 37.0591 32.8131C36.6713 32.3279 36.145 31.8058 35.48 31.2476C35.9031 30.7661 36.4428 30.3081 37.0996 29.8744C37.7566 29.4406 38.6181 29.0813 39.683 28.796L40.1638 28.6813C41.2671 28.4541 42.2333 28.504 43.0618 28.8299L43.2416 28.901C44.1199 29.2805 44.6883 29.9538 44.9472 30.9199C45.1958 31.8475 45.0858 32.7426 44.6172 33.6046C44.1737 34.4231 43.411 35.4931 42.3288 36.8141C41.432 37.8644 40.7965 38.7897 40.4217 39.5897L40.3012 39.8869C40.0402 40.581 39.9081 41.2834 39.905 41.9929L39.9192 42.2873C39.9669 42.9913 40.1157 43.8091 40.3653 44.7408L41.8704 50.3581L48.6734 48.5352L48.0936 46.3713C48.0245 46.1137 47.9769 45.8603 47.9517 45.6117L47.9341 45.3646C47.9107 45.0027 47.9688 44.5997 48.108 44.1574C48.2473 43.7152 48.5141 43.2016 48.9095 42.6172C49.296 41.9981 49.8365 41.2643 50.5297 40.4158C51.833 38.9067 52.8717 37.5672 53.6456 36.3972L53.9609 35.9063C54.759 34.6247 55.2646 33.4209 55.4786 32.2958C55.6833 31.1363 55.6157 29.9211 55.2751 28.65C54.8148 26.9322 53.9036 25.5933 52.5416 24.6327C51.2047 23.6285 49.4995 23.036 47.4258 22.8552C45.3865 22.6652 43.0438 22.9243 40.3985 23.6331C37.5814 24.388 35.2605 25.415 33.4361 26.7139C31.6462 28.0036 30.3889 29.4266 29.6645 30.983C28.9653 32.4958 28.8089 33.9738 29.1954 35.4166Z" fill="#076707"/>
<path d="M47.25 84.0702C47.25 72.6443 47.25 66.9293 48.8577 62.3393C50.2786 58.2789 52.5961 54.5909 55.6379 51.549C58.6797 48.5072 62.3678 46.1898 66.4282 44.7689C71.0223 43.1611 76.7373 43.1611 88.1591 43.1611" fill="#0CAC0C"/>
<path d="M47.25 84.0702C47.25 72.6443 47.25 66.9293 48.8577 62.3393C50.2786 58.2789 52.5961 54.5909 55.6379 51.549C58.6797 48.5072 62.3678 46.1898 66.4282 44.7689C71.0223 43.1611 76.7373 43.1611 88.1591 43.1611" stroke="#076707" stroke-width="6.13636"/>
</svg>
