<svg width="90" height="92" viewBox="0 0 90 92" fill="none" xmlns="http://www.w3.org/2000/svg">
<path d="M20.2758 89.5C18.4682 89.5 16.7041 89.1551 14.9837 88.4654C13.2632 87.7756 11.7185 86.7383 10.3495 85.3535L10.191 85.1156C9.74962 84.7404 9.45892 84.2448 9.31885 83.6291C9.17878 83.0159 9.22239 82.4213 9.44967 81.8452L15.9787 65.3502L23.6216 68.0855L24.7672 64.823L17.2432 62.0877L19.8437 55.4398L27.8831 58.405L28.8543 54.9879L21.1083 52.1733L23.7088 45.5294L31.8948 48.4866L33.1158 45.2003L24.9734 42.2906L29.5996 30.4655L38.5745 32.1423C40.0016 32.441 41.389 32.3577 42.7369 31.8926C44.082 31.4275 45.2779 30.6716 46.3244 29.6251C47.437 28.4966 48.2101 27.1805 48.6435 25.6768C49.0769 24.173 49.0505 22.6812 48.5642 21.2012L47.2639 17.467L56.0763 8.5L80.7612 33.6804L75.6316 39.0321L78.8941 42.3105L75.9368 45.1171L72.8448 41.9061L67.2513 47.6026L70.4385 50.7145L67.5843 53.5172L64.5002 50.4291L50.578 64.5495L53.5908 67.5623L50.6652 70.2896L47.8506 67.3561L42.2532 72.9734L45.1669 75.8831L42.3127 78.6897L39.4268 75.7998L33.9086 81.4726L36.6954 84.3109L33.8135 87.0383L31.0782 84.2792L29.7819 85.6508C28.4156 86.9167 26.9383 87.8747 25.35 88.5248C23.7617 89.1749 22.0703 89.5 20.2758 89.5Z" fill="#E7F7E7" stroke="#076707" stroke-width="4.05"/>
<path d="M20.2758 85.5C18.4682 85.5 16.7041 85.1551 14.9837 84.4654C13.2632 83.7756 11.7185 82.7383 10.3495 81.3535L10.191 81.1156C9.74962 80.7404 9.45892 80.2448 9.31885 79.6291C9.17878 79.0159 9.22239 78.4213 9.44967 77.8452L15.9787 61.3502L23.6216 64.0855L24.7672 60.823L17.2432 58.0877L19.8437 51.4398L27.8831 54.405L28.8543 50.9879L21.1083 48.1733L23.7088 41.5294L31.8948 44.4866L33.1158 41.2003L24.9734 38.2906L29.5996 26.4655L38.5745 28.1423C40.0016 28.441 41.389 28.3577 42.7369 27.8926C44.082 27.4275 45.2779 26.6716 46.3244 25.6251C47.437 24.4966 48.2101 23.1805 48.6435 21.6768C49.0769 20.173 49.0505 18.6812 48.5642 17.2012L47.2639 13.467L56.0763 4.5L80.7612 29.6804L75.6316 35.0321L78.8941 38.3105L75.9368 41.1171L72.8448 37.9061L67.2513 43.6026L70.4385 46.7145L67.5843 49.5172L64.5002 46.4291L50.578 60.5495L53.5908 63.5623L50.6652 66.2896L47.8506 63.3561L42.2532 68.9734L45.1669 71.8831L42.3127 74.6897L39.4268 71.7998L33.9086 77.4726L36.6954 80.3109L33.8135 83.0383L31.0782 80.2792L29.7819 81.6508C28.4156 82.9167 26.9383 83.8747 25.35 84.5248C23.7617 85.1749 22.0703 85.5 20.2758 85.5Z" fill="#E7F7E7" stroke="#076707" stroke-width="4.05"/>
</svg>
