<svg width="56" height="56" viewBox="0 0 56 56" fill="none" xmlns="http://www.w3.org/2000/svg">
<g clip-path="url(#clip0_78_304)">
<path d="M0 3.5C0 1.567 1.567 0 3.5 0H52.5C54.433 0 56 1.567 56 3.5V52.5C56 54.433 54.433 56 52.5 56H3.5C1.567 56 0 54.433 0 52.5V3.5Z" fill="black" fill-opacity="0.2"/>
<rect width="56" height="56" rx="4.66667" fill="#6DCD6D"/>
<g filter="url(#filter0_d_78_304)">
<g filter="url(#filter1_d_78_304)">
<g clip-path="url(#clip1_78_304)">
<rect x="10.5" y="10.5" width="35" height="35" rx="17.5" fill="#E7F7E7"/>
<path d="M19.4551 39.4502L23.7812 44.9365C21.5152 44.3697 19.3846 43.3562 17.5166 41.9521C15.6487 40.5481 14.0816 38.7837 12.9072 36.7646L19.4551 39.4502ZM43.0918 36.7646C41.9174 38.7836 40.3512 40.5482 38.4834 41.9521C36.6151 43.3564 34.4842 44.3698 32.2178 44.9365L36.5439 39.4502L43.0918 36.7646ZM33.6182 26.7441L31.4717 33.3486H24.5283L22.3809 26.7441L28 22.6621L33.6182 26.7441ZM40.9512 16.3018C43.7479 19.3966 45.4512 23.4984 45.4512 28C45.4512 28.7734 45.3994 29.5335 45.3008 30.2812L40.9512 22.5879V16.3018ZM15.0498 22.5859L10.6982 30.2793C10.5997 29.5339 10.5488 28.7743 10.5488 28L10.5527 27.5908C10.6452 23.4129 12.2398 19.4043 15.0488 16.3018L15.0498 22.5859ZM28 10.5488C30.2272 10.5448 32.4339 10.9699 34.5 11.7998L28 14.9385L21.499 11.7998C23.3812 11.0435 25.4237 10.6061 27.5635 10.5537L28 10.5488Z" fill="#6DCD6D" stroke="#076707" stroke-width="0.0972222"/>
<path d="M28 22.6024V14.9933ZM28 22.6024L33.6757 26.7268ZM28 22.6024L22.3243 26.7268ZM31.5076 33.3976L36.5135 39.41ZM31.5076 33.3976H24.4924ZM31.5076 33.3976L33.6757 26.7268ZM24.4924 33.3976L19.4865 39.41ZM24.4924 33.3976L22.3243 26.7268ZM22.3243 26.7268L15.0973 22.6005ZM28 14.9933L21.3784 11.7979ZM28 14.9933L34.6216 11.7979ZM34.6216 11.7979C32.5202 10.9375 30.2707 10.4966 28 10.5C25.6559 10.5 23.4216 10.9597 21.3784 11.796M34.6216 11.796C37.0114 12.7771 39.1559 14.2724 40.9027 16.1757ZM40.9027 16.1757C43.8649 19.4004 45.506 23.6212 45.5 28C45.5 28.8274 45.4439 29.6384 45.3316 30.433M40.9027 16.1757V22.6024ZM21.3784 11.796C18.9885 12.7771 16.8441 14.2724 15.0973 16.1757ZM15.0973 16.1757C12.1351 19.4004 10.494 23.6212 10.5 28C10.5 28.8274 10.5561 29.6384 10.6684 30.433M15.0973 16.1757V22.6024ZM32.0903 45.0194C30.7504 45.3392 29.3775 45.5005 28 45.5C26.6218 45.5006 25.2484 45.3393 23.9078 45.0194M32.0922 45.0194C34.4165 44.4581 36.6015 43.4275 38.5129 41.9907C40.4243 40.554 42.0218 38.7416 43.207 36.6649M32.0922 45.0194L36.5135 39.41ZM23.9078 45.0194C21.5835 44.4581 19.3985 43.4256 17.4871 41.9888C15.5757 40.5521 13.9782 38.7397 12.793 36.663M23.9078 45.0194L19.4865 39.41ZM43.207 36.6649C44.3052 34.7416 45.0263 32.6246 45.3316 30.4311ZM43.207 36.6649L36.5135 39.41ZM45.3316 30.433L40.9008 22.6005ZM12.793 36.663L19.4865 39.41ZM12.793 36.663C11.6948 34.7398 10.9737 32.6265 10.6684 30.433ZM10.6684 30.433L15.0992 22.6005ZM40.9008 22.6005L33.6757 26.7268Z" fill="#6DCD6D"/>
<path d="M28 22.6024V14.9933M28 22.6024L33.6757 26.7268M28 22.6024L22.3243 26.7268M28 14.9933L21.3784 11.7979M28 14.9933L34.6216 11.7979C32.5202 10.9375 30.2707 10.4966 28 10.5C25.6559 10.5 23.4216 10.9597 21.3784 11.796C18.9885 12.7771 16.8441 14.2724 15.0973 16.1757M33.6757 26.7268L31.5076 33.3976M33.6757 26.7268L40.9008 22.6005L45.3316 30.433C45.4439 29.6384 45.5 28.8274 45.5 28C45.506 23.6212 43.8649 19.4004 40.9027 16.1757M22.3243 26.7268L24.4924 33.3976M22.3243 26.7268L15.0973 22.6005M31.5076 33.3976L36.5135 39.41M31.5076 33.3976H24.4924M36.5135 39.41L32.0922 45.0194C34.4165 44.4581 36.6015 43.4275 38.5129 41.9907C40.4243 40.554 42.0218 38.7416 43.207 36.6649M36.5135 39.41L43.207 36.6649M24.4924 33.3976L19.4865 39.41M19.4865 39.41L23.9078 45.0194M19.4865 39.41L12.793 36.663M34.6216 11.796C37.0114 12.7771 39.1559 14.2724 40.9027 16.1757M40.9027 16.1757V22.6024M15.0973 16.1757C12.1351 19.4004 10.494 23.6212 10.5 28C10.5 28.8274 10.5561 29.6384 10.6684 30.433M15.0973 16.1757V22.6024M10.6684 30.433C10.9737 32.6265 11.6948 34.7398 12.793 36.663M10.6684 30.433L15.0992 22.6005M12.793 36.663C13.9782 38.7397 15.5757 40.5521 17.4871 41.9888C19.3985 43.4256 21.5835 44.4581 23.9078 45.0194C25.2484 45.3393 26.6218 45.5006 28 45.5C29.3775 45.5005 30.7504 45.3392 32.0903 45.0194M43.207 36.6649C44.3052 34.7416 45.0263 32.6246 45.3316 30.4311" stroke="#076707" stroke-width="1.45833" stroke-linecap="round" stroke-linejoin="round"/>
</g>
<rect x="10.0139" y="10.0139" width="35.9722" height="35.9722" rx="17.9861" stroke="#076707" stroke-width="0.972222"/>
</g>
</g>
</g>
<defs>
<filter id="filter0_d_78_304" x="9.52777" y="9.52783" width="36.9445" height="38.111" filterUnits="userSpaceOnUse" color-interpolation-filters="sRGB">
<feFlood flood-opacity="0" result="BackgroundImageFix"/>
<feColorMatrix in="SourceAlpha" type="matrix" values="0 0 0 0 0 0 0 0 0 0 0 0 0 0 0 0 0 0 127 0" result="hardAlpha"/>
<feOffset dy="1.16667"/>
<feComposite in2="hardAlpha" operator="out"/>
<feColorMatrix type="matrix" values="0 0 0 0 0.0470588 0 0 0 0 0.67451 0 0 0 0 0.0470588 0 0 0 1 0"/>
<feBlend mode="normal" in2="BackgroundImageFix" result="effect1_dropShadow_78_304"/>
<feBlend mode="normal" in="SourceGraphic" in2="effect1_dropShadow_78_304" result="shape"/>
</filter>
<filter id="filter1_d_78_304" x="9.52777" y="9.52783" width="36.9445" height="38.4027" filterUnits="userSpaceOnUse" color-interpolation-filters="sRGB">
<feFlood flood-opacity="0" result="BackgroundImageFix"/>
<feColorMatrix in="SourceAlpha" type="matrix" values="0 0 0 0 0 0 0 0 0 0 0 0 0 0 0 0 0 0 127 0" result="hardAlpha"/>
<feOffset dy="1.45833"/>
<feComposite in2="hardAlpha" operator="out"/>
<feColorMatrix type="matrix" values="0 0 0 0 0.027451 0 0 0 0 0.403922 0 0 0 0 0.027451 0 0 0 1 0"/>
<feBlend mode="normal" in2="BackgroundImageFix" result="effect1_dropShadow_78_304"/>
<feBlend mode="normal" in="SourceGraphic" in2="effect1_dropShadow_78_304" result="shape"/>
</filter>
<clipPath id="clip0_78_304">
<path d="M0 3.5C0 1.567 1.567 0 3.5 0H52.5C54.433 0 56 1.567 56 3.5V52.5C56 54.433 54.433 56 52.5 56H3.5C1.567 56 0 54.433 0 52.5V3.5Z" fill="white"/>
</clipPath>
<clipPath id="clip1_78_304">
<rect x="10.5" y="10.5" width="35" height="35" rx="17.5" fill="white"/>
</clipPath>
</defs>
</svg>
